<?xml version="1.0" standalone="no"?><!DOCTYPE svg PUBLIC "-//W3C//DTD SVG 1.1//EN" "http://www.w3.org/Graphics/SVG/1.1/DTD/svg11.dtd"><svg t="1562682808266" class="icon" viewBox="0 0 1024 1024" version="1.1" xmlns="http://www.w3.org/2000/svg" p-id="3120" xmlns:xlink="http://www.w3.org/1999/xlink" width="200" height="200"><defs><style type="text/css"></style></defs><path d="M 512 426.454 L 683.091 255.363 c 24.4416 -24.4416 61.1041 -24.4416 85.5457 0 s 24.4416 61.1041 0 85.5457 L 597.546 512 l 171.091 171.091 c 24.4416 24.4416 24.4416 61.1041 0 85.5457 s -61.1041 24.4416 -85.5457 0 L 512 597.546 L 340.909 768.637 c -24.4416 24.4416 -61.1041 24.4416 -85.5457 0 c -24.4416 -24.4416 -24.4416 -61.1041 0 -85.5457 L 426.454 512 L 255.363 340.909 C 230.921 316.467 230.921 279.805 255.363 255.363 c 24.4416 -24.4416 61.1041 -24.4416 85.5457 0 L 512 426.454 Z" p-id="3121"></path></svg>